<?xml version="1.0" encoding="UTF-8"?>
<svg width="1440px" height="1024px" viewBox="0 0 1440 1024" version="1.1" xmlns="http://www.w3.org/2000/svg" xmlns:xlink="http://www.w3.org/1999/xlink">
    <!-- Generator: sketchtool 50 (54983) - http://www.bohemiancoding.com/sketch -->
    <title>Desktop HD</title>
    <desc>Created with sketchtool.</desc>
    <defs>
        <path d="M57.4583333,361.166667 C49.25,361.166667 41.0416667,359.525 32.8333333,354.6 C9.85,341.466667 1.64166667,310.275 14.775,287.291667 L154.316667,54.175 C154.316667,54.175 154.316667,54.175 154.316667,54.175 C157.6,47.6083333 164.166667,41.0416667 170.733333,37.7583333 C182.225,31.1916667 195.358333,29.55 208.491667,32.8333333 C221.625,36.1166667 231.475,44.325 239.683333,55.8166667 L377.583333,287.291667 C382.508333,295.5 384.15,303.708333 384.15,311.916667 C384.15,325.05 379.225,338.183333 369.375,346.391667 C361.166667,356.241667 349.675,361.166667 336.541667,361.166667 L57.4583333,361.166667 Z M182.225,72.2333333 L44.325,303.708333 C39.4,311.916667 42.6833333,321.766667 50.8916667,326.691667 C52.5333333,328.333333 55.8166667,328.333333 57.4583333,328.333333 L334.9,328.333333 C339.825,328.333333 343.108333,326.691667 346.391667,323.408333 C349.675,320.125 351.316667,316.841667 351.316667,311.916667 C351.316667,308.633333 351.316667,306.991667 349.675,303.708333 L211.775,72.2333333 C206.85,64.025 197,62.3833333 188.791667,65.6666667 C185.508333,67.3083333 183.866667,68.95 182.225,72.2333333 Z M213.416667,213.416667 L213.416667,147.75 C213.416667,137.9 206.85,131.333333 197,131.333333 C187.15,131.333333 180.583333,137.9 180.583333,147.75 L180.583333,213.416667 C180.583333,223.266667 187.15,229.833333 197,229.833333 C206.85,229.833333 213.416667,223.266667 213.416667,213.416667 Z M208.491667,290.575 C211.775,287.291667 213.416667,284.008333 213.416667,279.083333 C213.416667,277.441667 213.416667,274.158333 211.775,272.516667 C211.775,270.875 210.133333,269.233333 208.491667,267.591667 C208.491667,267.591667 206.85,265.95 205.208333,265.95 C203.566667,265.95 203.566667,264.308333 201.925,264.308333 C200.283333,264.308333 200.283333,264.308333 198.641667,262.666667 C195.358333,262.666667 192.075,262.666667 188.791667,264.308333 C187.15,264.308333 185.508333,265.95 183.866667,267.591667 C182.225,269.233333 180.583333,270.875 180.583333,272.516667 C180.583333,274.158333 178.941667,275.8 178.941667,279.083333 C178.941667,284.008333 180.583333,287.291667 183.866667,290.575 C187.15,293.858333 190.433333,295.5 195.358333,295.5 C201.925,295.5 205.208333,293.858333 208.491667,290.575 Z" id="path-1"></path>
    </defs>
    <g id="Page-1" stroke="none" stroke-width="1" fill="none" fill-rule="evenodd">
        <g id="Desktop-HD">
            <g id="icon-/-alert-triangle" transform="translate(523.000000, 315.000000)">
                <mask id="mask-2" fill="white">
                    <use xlink:href="#path-1"></use>
                </mask>
                <use id="Mask" fill="#000000" fill-rule="nonzero" xlink:href="#path-1"></use>
                <g id="color-/-indigo" mask="url(#mask-2)" fill="#3F51B5" fill-rule="evenodd">
                    <rect id="Shape" x="0" y="0" width="394" height="394"></rect>
                </g>
            </g>
            <text id="EDITED" font-family="Roboto-Light, Roboto" font-size="20" font-weight="300" fill="#D0021B">
                <tspan x="687" y="517">EDITED</tspan>
            </text>
        </g>
    </g>
</svg>